<svg id="ajude_" data-name="ajude!" xmlns="http://www.w3.org/2000/svg" viewBox="0 0 194.56 80"><defs><style>.cls-1{fill:#86c5f4;}.cls-2{fill:#6dbbf6;}.cls-3{fill:#4faef6;}.cls-4{fill:#339ded;}.cls-5{fill:#0091ff;}.cls-6{fill:#f1ab41;}</style></defs><title>ajude! [Recuperado]</title><path class="cls-1" d="M13.2,67.2a10.38,10.38,0,0,1-8.12-3.44A12.93,12.93,0,0,1,2,54.8a12.59,12.59,0,0,1,3.36-9.2,12,12,0,0,1,9-3.44A17.25,17.25,0,0,1,19,42.8a14.82,14.82,0,0,1,4.16,1.84V40.16q0-3.77-1.44-5.28t-5-1.52a23.3,23.3,0,0,0-5.08.6,16.38,16.38,0,0,0-4.28,1.48L4.88,27.76a30.21,30.21,0,0,1,2.88-1,31.91,31.91,0,0,1,3.6-.8c1.28-.21,2.59-.39,3.92-.52s2.56-.2,3.68-.2Q33,25.28,33,39c0,.8,0,2-.12,3.52s-.16,3.16-.24,4.84-.16,3.24-.24,4.68-.12,2.45-.12,3a4.75,4.75,0,0,0,.56,2.64,2.38,2.38,0,0,0,2.08.8,10.88,10.88,0,0,0,2.4-.32l-1.28,7.68c-.85.27-1.64.48-2.36.64a10.09,10.09,0,0,1-2.2.24,7.58,7.58,0,0,1-5-1.64,7,7,0,0,1-2.4-4.68,12.32,12.32,0,0,1-4.48,4.92A12,12,0,0,1,13.2,67.2ZM17,59.84A5.86,5.86,0,0,0,21.4,58a6.36,6.36,0,0,0,1.8-4.64,5.19,5.19,0,0,0-1.44-3.84,5.4,5.4,0,0,0-4-1.44,5.45,5.45,0,0,0-4.16,1.6,6.14,6.14,0,0,0-1.52,4.4,6.29,6.29,0,0,0,1.32,4.2A4.51,4.51,0,0,0,17,59.84Z" transform="translate(-2 -4.64)"/><path class="cls-2" d="M43.6,42.72q0-4.32-.08-8.12t-.32-8.36h11q-.4,3.68-.52,7.32c-.08,2.43-.12,4.49-.12,6.2,0,1.23,0,3,0,5.28s0,4.77-.08,7.44-.08,5.37-.16,8.12-.17,5.16-.28,7.24a48.39,48.39,0,0,1-1,7.92,12.7,12.7,0,0,1-2,4.64,9.09,9.09,0,0,1-4.36,3.32,14.82,14.82,0,0,1-4.92.92,19.07,19.07,0,0,1-4-.48A16.89,16.89,0,0,1,33,83l2.32-8.32a7,7,0,0,0,2,.76,9.42,9.42,0,0,0,2.16.28,3.27,3.27,0,0,0,3.08-1.92q1-1.92,1-7.28ZM43,13.2a5.44,5.44,0,0,1,1.56-3.88A5.64,5.64,0,0,1,48.8,7.68a6.3,6.3,0,0,1,4,1.36,4.43,4.43,0,0,1,1.72,3.68,4.93,4.93,0,0,1-1.64,3.76A6.17,6.17,0,0,1,48.56,18a6.34,6.34,0,0,1-4-1.24A4.2,4.2,0,0,1,43,13.2Z" transform="translate(-2 -4.64)"/><path class="cls-3" d="M90.32,67.2q-1.6-2.33-2.56-4a14.33,14.33,0,0,1-1.44-3.52c-.8.91-1.65,1.8-2.56,2.68a20.77,20.77,0,0,1-3,2.4,16.73,16.73,0,0,1-3.48,1.76,11.54,11.54,0,0,1-4,.68,10.76,10.76,0,0,1-3.88-.72,8.25,8.25,0,0,1-3.32-2.4,12.65,12.65,0,0,1-2.32-4.56,24.91,24.91,0,0,1-.88-7.2c0-.69,0-1.77,0-3.24s.07-3,.12-4.64.09-3.19.12-4.68,0-2.64,0-3.44a34.81,34.81,0,0,0-.36-5.08,12,12,0,0,0-1.24-4l11-1.92a17.14,17.14,0,0,1,.68,4c.08,1.44.12,2.69.12,3.76,0,1.55,0,3.09-.12,4.64s-.16,3-.24,4.52-.16,2.85-.24,4.16-.12,2.44-.12,3.4q0,4.73,1.6,6.48A5.66,5.66,0,0,0,78.64,58a9.27,9.27,0,0,0,4-.8,14.51,14.51,0,0,0,3-1.92c-.05-1-.08-2-.08-3.24V41.28c0-2,0-3.81,0-5.52s0-3.32-.08-4.84-.07-3.08-.12-4.68h10.8c0,1.28-.11,2.72-.16,4.32s-.12,3.29-.2,5.08-.15,3.63-.2,5.52-.08,3.72-.08,5.48c0,2.08,0,3.77.16,5.08a15.4,15.4,0,0,0,.64,3.44,11.72,11.72,0,0,0,1.28,2.72c.53.83,1.23,1.77,2.08,2.84Z" transform="translate(-2 -4.64)"/><path class="cls-4" d="M133.84,67.2q-2.24-2.08-3.6-3.64a12.75,12.75,0,0,1-2.08-3.16c-.8.8-1.65,1.6-2.56,2.4a23.43,23.43,0,0,1-3,2.2,16.15,16.15,0,0,1-3.36,1.6,11.57,11.57,0,0,1-3.76.6,12.85,12.85,0,0,1-4.24-.72,8.27,8.27,0,0,1-3.68-2.64,14.61,14.61,0,0,1-2.6-5.2,29.32,29.32,0,0,1-1-8.4,40.42,40.42,0,0,1,1.32-10.92,22.82,22.82,0,0,1,3.72-7.8,15.5,15.5,0,0,1,5.72-4.68,17,17,0,0,1,7.32-1.56,9.41,9.41,0,0,1,4.64,1.2Q126.63,20,126.6,15c0-3.31-.09-6.48-.2-9.52l10.88-.88q-.48,9.77-.56,20.52t-.08,21.48c0,2.08.05,3.77.16,5.08a14.85,14.85,0,0,0,.64,3.44,11.72,11.72,0,0,0,1.28,2.72,33,33,0,0,0,2.08,2.84ZM121.12,58a8.26,8.26,0,0,0,3.2-.6A10.94,10.94,0,0,0,127,55.84c-.11-1-.18-2.16-.2-3.44s0-2.77,0-4.48V33.2a6,6,0,0,0-5-2.32q-3.53,0-5.4,4.24t-1.88,12.56A23.38,23.38,0,0,0,115,53a8.08,8.08,0,0,0,1.36,3.12,4.37,4.37,0,0,0,2.08,1.52A8.5,8.5,0,0,0,121.12,58Z" transform="translate(-2 -4.64)"/><path class="cls-5" d="M155.68,48.16q.39,6.08,2.48,8.52t6.32,2.44a18.78,18.78,0,0,0,6-1q2.83-1,4.68-1.76V63a14.24,14.24,0,0,1-6.4,3.24,32.07,32.07,0,0,1-7.44.92,24,24,0,0,1-5.84-.72,12,12,0,0,1-5.16-2.76A14.32,14.32,0,0,1,146.68,58a27,27,0,0,1-1.4-9.56,32.61,32.61,0,0,1,1.44-10.2,20.67,20.67,0,0,1,4-7.24,16.15,16.15,0,0,1,5.92-4.32,18.74,18.74,0,0,1,7.4-1.44,14.08,14.08,0,0,1,6.68,1.4,11.38,11.38,0,0,1,4.08,3.56,12.92,12.92,0,0,1,2,4.8,27,27,0,0,1,.52,5.12,27.33,27.33,0,0,1-.36,4.64,15,15,0,0,1-.92,3.36Zm6.88-17a5.43,5.43,0,0,0-4.84,2.68q-1.72,2.69-2,8.44h13.2c0-.21,0-.48,0-.8s0-.61,0-.88a20.41,20.41,0,0,0-.24-2.92,10.14,10.14,0,0,0-1-3.08,7.39,7.39,0,0,0-2-2.44A5,5,0,0,0,162.56,31.12Z" transform="translate(-2 -4.64)"/><path class="cls-6" d="M183.84,61.92a5.87,5.87,0,0,1,1.72-4.2,6.15,6.15,0,0,1,4.68-1.8,7,7,0,0,1,4.44,1.48,4.87,4.87,0,0,1,1.88,4,5.34,5.34,0,0,1-1.8,4.12A6.82,6.82,0,0,1,190,67.2a7,7,0,0,1-4.36-1.36A4.62,4.62,0,0,1,183.84,61.92ZM196.16,7.76q-.33,5-.64,10.72t-.6,11.44c-.19,3.79-.35,7.45-.48,11s-.2,6.71-.2,9.48H186q0-9.28-.36-19.4t-.92-22.44Z" transform="translate(-2 -4.64)"/></svg>